<svg xmlns="http://www.w3.org/2000/svg" xmlns:xlink="http://www.w3.org/1999/xlink" viewBox="0 0 24 30" version="1.1" xml:space="preserve" style="" x="0px" y="0px" fill-rule="evenodd" clip-rule="evenodd" stroke-linejoin="round" stroke-miterlimit="1.41421"><g transform="matrix(1,0,0,1,-96,-192)"><g transform="matrix(1,0,0,1,96,192)"><rect x="0" y="0" width="24" height="24" style="" fill="none"/><g transform="matrix(1,0,0,1,-96,-192)"><path d="M118.087,193.004C118.175,193.015 118.258,193.03 118.342,193.06C118.618,193.161 118.839,193.382 118.94,193.658C118.98,193.77 118.995,193.882 119,194L119,210C118.995,210.118 118.98,210.23 118.94,210.342C118.839,210.618 118.618,210.839 118.342,210.94C118.23,210.98 118.118,210.995 118,211L110.303,211L104.555,214.832L104.481,214.877C104.35,214.942 104.217,214.987 104.07,214.998C103.66,215.026 103.264,214.792 103.092,214.418C103.03,214.284 103.006,214.146 103,214L103,211L98,211L97.913,210.996C97.796,210.981 97.685,210.957 97.577,210.906C97.312,210.782 97.11,210.542 97.034,210.259C97.011,210.173 97.004,210.088 97,210L97,194C97.005,193.882 97.02,193.77 97.06,193.658C97.161,193.382 97.382,193.161 97.658,193.06C97.77,193.02 97.882,193.005 98,193C104.696,193 111.459,193.003 118.087,193.004ZM99,195L99,209L104,209C104.118,209.005 104.23,209.02 104.342,209.06C104.618,209.161 104.839,209.382 104.94,209.658C104.98,209.77 104.995,209.882 105,210L105,212.131L109.445,209.168L109.517,209.124C109.593,209.086 109.668,209.053 109.751,209.032C109.833,209.01 109.915,209.004 110,209L117,209L117,195L99,195ZM110.991,197.968C110.988,197.628 110.988,197.288 111.001,196.949C111.007,196.854 111.024,196.761 111.056,196.671C111.143,196.419 111.334,196.208 111.576,196.094C111.678,196.047 111.786,196.018 111.897,196.005C111.94,196.001 111.983,196 112.026,196C112.138,196.005 112.248,196.025 112.353,196.064C112.628,196.168 112.848,196.394 112.944,196.671C112.979,196.769 112.996,196.871 113,196.974C113.004,197.306 113.01,197.637 113.011,197.968C113.69,197.974 114.369,197.985 115.048,198.001C115.194,198.012 115.334,198.046 115.465,198.115C115.579,198.174 115.681,198.257 115.764,198.355C115.837,198.441 115.895,198.54 115.935,198.645C115.969,198.736 115.99,198.831 115.997,198.928C116.025,199.303 115.832,199.671 115.507,199.862C115.366,199.945 115.211,199.987 115.048,199.999L114.957,200.001C114.944,200.15 114.929,200.298 114.91,200.446C114.889,200.621 114.863,200.795 114.833,200.968C114.637,202.121 114.26,203.249 113.714,204.285C114.007,204.463 114.311,204.626 114.621,204.77C114.777,204.842 114.935,204.91 115.095,204.971C115.185,205.006 115.277,205.037 115.368,205.07C115.409,205.087 115.409,205.087 115.449,205.106C115.607,205.19 115.742,205.306 115.84,205.457C115.896,205.544 115.938,205.639 115.965,205.739C116.051,206.055 115.973,206.402 115.759,206.651C115.692,206.729 115.612,206.797 115.524,206.851C115.323,206.976 115.079,207.025 114.845,206.988C114.719,206.968 114.599,206.921 114.48,206.877C113.995,206.698 113.526,206.476 113.074,206.224C112.919,206.138 112.766,206.048 112.614,205.955C112.298,206.345 111.951,206.711 111.575,207.047C111.254,207.334 110.912,207.594 110.554,207.833C110.506,207.863 110.506,207.862 110.457,207.889C110.321,207.955 110.178,207.996 110.026,208C109.895,208.003 109.764,207.98 109.641,207.933C109.537,207.893 109.439,207.835 109.353,207.763C109.033,207.491 108.916,207.034 109.067,206.641C109.135,206.463 109.252,206.318 109.4,206.2C109.507,206.125 109.615,206.054 109.721,205.978C109.962,205.799 110.193,205.608 110.41,205.4C110.62,205.201 110.816,204.99 111.001,204.768C110.497,204.329 110.032,203.843 109.638,203.305C109.483,203.094 109.34,202.876 109.213,202.648C109.135,202.509 109.057,202.37 109.023,202.214C108.953,201.893 109.048,201.551 109.274,201.312C109.345,201.237 109.428,201.174 109.518,201.124C109.649,201.052 109.791,201.014 109.94,201.002C109.984,201 109.984,201 110.028,201C110.102,201.004 110.175,201.013 110.247,201.031C110.495,201.094 110.701,201.25 110.842,201.461C110.896,201.55 110.942,201.643 110.994,201.733C111.29,202.228 111.672,202.665 112.093,203.058C112.4,202.42 112.63,201.744 112.78,201.054C112.853,200.717 112.908,200.375 112.945,200.032C111.614,200.042 110.282,200.031 108.952,199.999C108.789,199.987 108.634,199.945 108.493,199.862C108.168,199.671 107.975,199.303 108.003,198.928C108.01,198.831 108.031,198.736 108.065,198.645C108.105,198.54 108.163,198.441 108.236,198.355C108.319,198.257 108.421,198.174 108.535,198.115C108.666,198.046 108.806,198.012 108.952,198.001C109.631,197.985 110.311,197.974 110.991,197.968ZM103.974,198.001C103.995,198.001 104.017,198 104.038,198.001C104.043,198.001 104.048,198.001 104.052,198.002C104.057,198.002 104.062,198.002 104.066,198.002C104.154,198.01 104.239,198.025 104.322,198.053C104.351,198.063 104.379,198.074 104.407,198.087C104.419,198.092 104.43,198.097 104.441,198.103C104.477,198.12 104.511,198.14 104.544,198.161C104.636,198.221 104.718,198.295 104.786,198.382C104.829,198.437 104.865,198.496 104.897,198.559C105.965,200.881 106.912,203.257 107.919,205.606C107.984,205.77 108.014,205.942 107.993,206.118C107.951,206.47 107.719,206.78 107.394,206.919C107.298,206.96 107.195,206.986 107.091,206.996C106.969,207.007 106.845,206.995 106.728,206.962C106.61,206.929 106.499,206.874 106.401,206.801C106.273,206.705 106.177,206.582 106.103,206.441C105.884,205.966 105.67,205.488 105.46,205.009C104.48,205.023 103.5,205.023 102.519,205.009C102.318,205.47 102.117,205.931 101.919,206.394C101.845,206.554 101.741,206.694 101.599,206.801C101.515,206.863 101.421,206.913 101.322,206.947C100.987,207.061 100.608,206.986 100.341,206.752C100.249,206.672 100.172,206.575 100.115,206.466C100.058,206.358 100.022,206.24 100.007,206.118C99.988,205.96 100.011,205.805 100.062,205.655C101.007,203.28 102.074,200.955 103.081,198.606C103.11,198.542 103.142,198.481 103.183,198.424C103.246,198.334 103.324,198.255 103.413,198.191C103.444,198.168 103.478,198.146 103.512,198.127C103.523,198.121 103.534,198.115 103.546,198.109C103.573,198.095 103.6,198.083 103.629,198.072C103.71,198.039 103.795,198.02 103.882,198.007C103.886,198.007 103.891,198.006 103.896,198.006C103.9,198.005 103.905,198.005 103.909,198.004C103.931,198.003 103.952,198.002 103.974,198.001ZM104.008,201.592C103.81,202.056 103.609,202.519 103.407,202.982C103.802,202.98 104.197,202.98 104.592,202.982C104.397,202.519 104.203,202.055 104.008,201.592Z"/></g></g></g><text x="0" y="39" fill="#000000" font-size="5px" font-weight="bold" font-family="'Helvetica Neue', Helvetica, Arial-Unicode, Arial, Sans-serif">Created by Explanaicon</text><text x="0" y="44" fill="#000000" font-size="5px" font-weight="bold" font-family="'Helvetica Neue', Helvetica, Arial-Unicode, Arial, Sans-serif">from the Noun Project</text></svg>